<?xml version="1.0" encoding="utf-8"?>
<!-- Generator: Adobe Illustrator 27.9.0, SVG Export Plug-In . SVG Version: 6.00 Build 0)  -->
<svg version="1.1" id="Layer_1" xmlns="http://www.w3.org/2000/svg" xmlns:xlink="http://www.w3.org/1999/xlink" x="0px" y="0px"
	 viewBox="0 0 1417.32 1417.32" style="enable-background:new 0 0 1417.32 1417.32;" xml:space="preserve">
<style type="text/css">
	.st0{fill:#010201;}
</style>
<g>
	<g>
		<rect x="633.71" y="1196.9" class="st0" width="149.91" height="8.5"/>
	</g>
	<path class="st0" d="M218.49,1152.74v-83.28c0-3.27-0.77-5.34-2.31-6.23c-1.54-0.89-3.99-1.33-7.35-1.33v-1.82h34.85v1.82
		c-3.36,0-5.83,0.44-7.42,1.33c-1.59,0.89-2.38,2.96-2.38,6.23v83.28c0,3.27,0.79,5.34,2.38,6.23c1.59,0.89,4.01,1.33,7.28,1.33
		l0.14,1.82h-34.85v-1.82c3.36,0,5.81-0.44,7.35-1.33C217.72,1158.09,218.49,1156.01,218.49,1152.74z"/>
	<path class="st0" d="M293.51,1060.08h12.74l54.17,75.59l-0.14-66.21c0-1.87-0.21-3.31-0.63-4.34c-0.42-1.02-1.03-1.77-1.82-2.24
		c-0.79-0.47-1.8-0.75-3.01-0.84c-1.21-0.09-2.66-0.14-4.34-0.14v-1.82h21.56v1.82c-1.59,0-2.99,0.05-4.2,0.14
		c-1.21,0.09-2.24,0.35-3.08,0.77c-0.84,0.42-1.47,1.1-1.89,2.03s-0.68,2.24-0.77,3.92l0.14,93.36h-1.82l-64.81-90.42v81.04
		c0,1.87,0.21,3.31,0.63,4.34c0.42,1.03,1.05,1.77,1.89,2.24c0.84,0.47,1.87,0.75,3.08,0.84c1.21,0.09,2.66,0.14,4.34,0.14v1.82
		h-21.7v-1.82c1.68,0,3.15-0.05,4.41-0.14c1.26-0.09,2.29-0.37,3.08-0.84c0.79-0.47,1.4-1.21,1.82-2.24
		c0.42-1.02,0.63-2.47,0.63-4.34v-83.56c-1.68-2.8-3.71-4.71-6.09-5.74s-5.16-1.54-8.33-1.54v-1.82H293.51z"/>
	<path class="st0" d="M406.32,1086.54l4.62-26.45h88.74l4.62,26.45h-1.82c-0.84-4.66-2.15-8.58-3.92-11.76
		c-1.77-3.17-3.92-5.71-6.44-7.63c-2.52-1.91-5.37-3.27-8.54-4.06c-3.17-0.79-6.67-1.19-10.5-1.19h-10.08v90.84
		c0,3.27,0.79,5.34,2.38,6.23c1.58,0.89,4.06,1.33,7.42,1.33v1.82h-34.85v-1.82c3.36,0,5.81-0.44,7.35-1.33
		c1.54-0.89,2.31-2.96,2.31-6.23v-90.84H437.4c-3.73,0-7.19,0.4-10.36,1.19c-3.17,0.79-6.02,2.15-8.54,4.06
		c-2.52,1.91-4.67,4.45-6.44,7.63c-1.77,3.17-3.08,7.09-3.92,11.76H406.32z"/>
	<path class="st0" d="M539.3,1160.3c3.08,0,5.41-0.37,7-1.12c1.59-0.75,2.52-2.43,2.8-5.04l-0.14-84.68c0-3.27-0.77-5.34-2.31-6.23
		c-1.54-0.89-3.99-1.33-7.35-1.33v-1.82h72.37l7.42,22.12h-1.82c-1.31-4.01-2.71-7.3-4.2-9.87c-1.49-2.57-3.24-4.62-5.25-6.16
		c-2.01-1.54-4.43-2.61-7.28-3.22c-2.85-0.6-6.23-0.91-10.15-0.91c-5.04,0-9.22,0.07-12.53,0.21c-3.31,0.14-5.97,0.47-7.98,0.98
		c-2.01,0.51-3.41,1.26-4.2,2.24c-0.79,0.98-1.19,2.31-1.19,3.99v38.21h16.1c3.83,0,6.81-0.46,8.96-1.4
		c2.15-0.93,3.73-2.29,4.76-4.06c1.03-1.77,1.68-3.99,1.96-6.65c0.28-2.66,0.42-5.76,0.42-9.31h1.82v46.33h-1.82
		c0-3.54-0.09-6.74-0.28-9.59c-0.19-2.85-0.77-5.27-1.75-7.28c-0.98-2-2.57-3.54-4.76-4.62c-2.19-1.07-5.3-1.61-9.31-1.61h-16.1
		v43.25c0,1.59,0.3,2.87,0.91,3.85c0.61,0.98,1.63,1.75,3.08,2.31c1.45,0.56,3.38,0.93,5.81,1.12c2.43,0.19,5.41,0.28,8.96,0.28
		c5.97,0,11.1-1,15.4-3.01c4.29-2,7.98-4.73,11.06-8.19c3.08-3.45,5.69-7.51,7.84-12.18c2.14-4.66,4.01-9.66,5.6-14.98h1.82
		l-9.94,40.17H539.3V1160.3z"/>
	<path class="st0" d="M660.79,1160.3c3.27,0,5.69-0.44,7.28-1.33c1.58-0.89,2.38-2.96,2.38-6.23v-83.28c0-3.27-0.79-5.34-2.38-6.23
		c-1.59-0.89-4.01-1.33-7.28-1.33v-1.82h39.75c5.22,0,10.36,0.26,15.4,0.77c5.04,0.51,9.54,1.61,13.51,3.29
		c3.97,1.68,7.19,4.18,9.66,7.49c2.47,3.31,3.71,7.77,3.71,13.37c0,5.51-1.14,9.92-3.43,13.23c-2.29,3.31-5.23,5.88-8.82,7.7
		c-3.59,1.82-7.56,3.03-11.9,3.64c-4.34,0.61-8.56,0.91-12.67,0.91h-5.88c1.77,2.71,3.85,4.6,6.23,5.67
		c2.38,1.07,4.78,1.61,7.21,1.61c2.52,0,4.9-0.51,7.14-1.54l24.92,36.53h0.28c2.14,2.99,4.36,4.99,6.65,6.02
		c2.29,1.03,4.78,1.54,7.49,1.54v1.82H745.9c-2.9,0-5.49-0.47-7.77-1.4c-2.29-0.93-4.36-2.17-6.23-3.71
		c-1.87-1.54-3.57-3.27-5.11-5.18c-1.54-1.91-2.96-3.85-4.27-5.81l-24.49-35.55h-12.18v42.27c0,3.27,0.79,5.34,2.38,6.23
		c1.58,0.89,4.06,1.33,7.42,1.33v1.82h-34.85V1160.3z M700.68,1108.65c3.73,0,7.23-0.35,10.5-1.05c3.27-0.7,6.11-1.93,8.54-3.71
		c2.43-1.77,4.34-4.17,5.74-7.21s2.1-6.88,2.1-11.55c0-7.56-2.08-13.32-6.23-17.29c-4.15-3.96-10.15-5.95-17.99-5.95h-17.5v46.75
		H700.68z"/>
	<path class="st0" d="M803,1152.74v-83.28c0-3.27-0.77-5.34-2.31-6.23c-1.54-0.89-3.99-1.33-7.35-1.33v-1.82h34.85v1.82
		c-3.36,0-5.83,0.44-7.42,1.33c-1.59,0.89-2.38,2.96-2.38,6.23v83.28c0,3.27,0.79,5.34,2.38,6.23c1.58,0.89,4.01,1.33,7.28,1.33
		l0.14,1.82h-34.85v-1.82c3.36,0,5.81-0.44,7.35-1.33C802.23,1158.09,803,1156.01,803,1152.74z"/>
	<path class="st0" d="M867.39,1110.89c0-7.28,1.31-14.09,3.92-20.44c2.61-6.35,6.18-11.9,10.71-16.66
		c4.52-4.76,9.84-8.49,15.96-11.2c6.11-2.7,12.62-4.06,19.53-4.06c6.91,0,13.44,1.35,19.6,4.06c6.16,2.71,11.52,6.44,16.09,11.2
		c4.57,4.76,8.19,10.31,10.85,16.66c2.66,6.35,3.99,13.16,3.99,20.44c0,7.28-1.33,14.14-3.99,20.57
		c-2.66,6.44-6.28,12.06-10.85,16.87c-4.57,4.81-9.94,8.59-16.09,11.34c-6.16,2.75-12.69,4.13-19.6,4.13
		c-6.91,0-13.41-1.38-19.53-4.13c-6.11-2.75-11.43-6.53-15.96-11.34c-4.53-4.81-8.1-10.43-10.71-16.87
		C868.7,1125.03,867.39,1118.17,867.39,1110.89z M916.1,1060.5c-5.32,0-9.96,1.33-13.93,3.99c-3.97,2.66-7.28,6.23-9.94,10.71
		c-2.66,4.48-4.67,9.68-6.02,15.61s-2.03,12.11-2.03,18.55c0,6.72,0.68,13.25,2.03,19.59c1.35,6.35,3.43,11.95,6.23,16.8
		s6.39,8.75,10.78,11.69c4.38,2.94,9.61,4.41,15.68,4.41c5.6,0,10.43-1.31,14.49-3.92c4.06-2.61,7.42-6.18,10.08-10.71
		c2.66-4.52,4.62-9.77,5.88-15.75c1.26-5.97,1.89-12.32,1.89-19.03c0-6.53-0.65-12.9-1.96-19.11c-1.31-6.2-3.38-11.73-6.23-16.59
		c-2.85-4.85-6.49-8.77-10.92-11.76C927.69,1062,922.35,1060.5,916.1,1060.5z"/>
	<path class="st0" d="M1007.22,1160.3c3.27,0,5.69-0.44,7.28-1.33c1.59-0.89,2.38-2.96,2.38-6.23v-83.28c0-3.27-0.79-5.34-2.38-6.23
		c-1.59-0.89-4.01-1.33-7.28-1.33v-1.82h39.75c5.23,0,10.36,0.26,15.4,0.77c5.04,0.51,9.54,1.61,13.51,3.29
		c3.97,1.68,7.18,4.18,9.66,7.49c2.47,3.31,3.71,7.77,3.71,13.37c0,5.51-1.14,9.92-3.43,13.23c-2.29,3.31-5.23,5.88-8.82,7.7
		c-3.59,1.82-7.56,3.03-11.9,3.64c-4.34,0.61-8.56,0.91-12.67,0.91h-5.88c1.77,2.71,3.85,4.6,6.23,5.67
		c2.38,1.07,4.78,1.61,7.21,1.61c2.52,0,4.9-0.51,7.14-1.54l24.91,36.53h0.28c2.14,2.99,4.36,4.99,6.65,6.02
		c2.29,1.03,4.78,1.54,7.49,1.54v1.82h-14.13c-2.9,0-5.48-0.47-7.77-1.4c-2.29-0.93-4.36-2.17-6.23-3.71
		c-1.87-1.54-3.57-3.27-5.11-5.18c-1.54-1.91-2.96-3.85-4.27-5.81l-24.5-35.55h-12.18v42.27c0,3.27,0.79,5.34,2.38,6.23
		c1.58,0.89,4.06,1.33,7.42,1.33v1.82h-34.85V1160.3z M1047.11,1108.65c3.73,0,7.23-0.35,10.5-1.05c3.27-0.7,6.11-1.93,8.54-3.71
		c2.42-1.77,4.34-4.17,5.74-7.21s2.1-6.88,2.1-11.55c0-7.56-2.08-13.32-6.23-17.29c-4.15-3.96-10.15-5.95-17.99-5.95h-17.49v46.75
		H1047.11z"/>
	<path class="st0" d="M1142.57,1120.13h1.82c0,7,0.79,13.02,2.38,18.05c1.58,5.04,3.75,9.22,6.51,12.53c2.75,3.31,6,5.74,9.73,7.28
		c3.73,1.54,7.75,2.31,12.04,2.31c2.61,0,5.11-0.28,7.49-0.84c2.38-0.56,4.45-1.52,6.23-2.87c1.77-1.35,3.17-3.1,4.2-5.25
		c1.02-2.14,1.54-4.76,1.54-7.84c0-3.92-1.28-7.49-3.85-10.71c-2.57-3.22-5.76-6.35-9.59-9.38c-3.83-3.03-7.98-6.02-12.46-8.96
		s-8.63-6.02-12.46-9.24c-3.83-3.22-7.02-6.67-9.59-10.36c-2.57-3.68-3.85-7.77-3.85-12.25c0-4.1,0.86-7.65,2.59-10.64
		c1.73-2.98,3.99-5.48,6.79-7.49c2.8-2.01,5.92-3.5,9.38-4.48c3.45-0.98,6.9-1.47,10.36-1.47c3.55,0,6.56,0.37,9.03,1.12
		c2.47,0.75,4.62,1.56,6.44,2.45c1.82,0.89,3.43,1.7,4.83,2.45c1.4,0.75,2.8,1.12,4.2,1.12c1.86,0,3.12-0.39,3.78-1.19
		c0.65-0.79,0.98-2.26,0.98-4.41h1.82v33.03h-1.82c0-4.66-0.7-8.93-2.1-12.81c-1.4-3.87-3.31-7.18-5.74-9.94
		c-2.43-2.75-5.3-4.87-8.61-6.37s-6.93-2.24-10.85-2.24c-5.6,0-9.61,1.33-12.04,3.99c-2.43,2.66-3.64,6.04-3.64,10.15
		c0,4.57,1.24,8.59,3.71,12.04c2.47,3.45,5.58,6.63,9.31,9.52c3.73,2.9,7.79,5.69,12.18,8.4c4.39,2.71,8.45,5.6,12.18,8.68
		c3.73,3.08,6.83,6.49,9.31,10.22c2.47,3.73,3.71,8.07,3.71,13.02c0,3.55-0.51,6.91-1.54,10.08c-1.03,3.17-2.73,5.95-5.11,8.33
		s-5.58,4.25-9.59,5.6c-4.01,1.35-8.96,2.03-14.84,2.03c-3.83,0-7.05-0.35-9.66-1.05c-2.61-0.7-4.9-1.45-6.86-2.24
		c-1.96-0.79-3.71-1.54-5.25-2.24c-1.54-0.7-3.15-1.05-4.83-1.05c-4.29,0-6.44,1.63-6.44,4.9h-1.82V1120.13z"/>
	<g>
		<path class="st0" d="M636.59,698.45c-0.27,0.34-0.56,0.68-0.84,1.03C636.02,699.14,636.31,698.8,636.59,698.45z"/>
		<path class="st0" d="M636.92,699.48c-0.49,0.6-0.99,1.2-1.51,1.8C635.93,700.68,636.42,700.08,636.92,699.48z"/>
		<path class="st0" d="M694.82,640.76c-6.92-5.07-33.19-18.59-80.81,20.2c-11.84,10.94-21.46,20.57-29.95,29.08
			c-0.12,0.12-0.23,0.23-0.35,0.35h-2.28c-9.78-10.32-17.78-33.7-26.23-58.41c-12.07-35.26-24.54-71.73-45.53-83.76
			c-0.12-0.07-0.24-0.13-0.37-0.18c-27.8-10.43-88.76-12.85-102.15,3.08c-9.69,11.53,1.2,82.03,12.08,139.3
			c-0.12,2.82,0.1,5.65,0.61,8.38c0.05,0.27,0.1,0.54,0.15,0.81c0.25,1.19,0.56,2.36,0.93,3.5c0.09,0.28,0.19,0.56,0.29,0.84
			c0.42,1.18,0.87,2.35,1.42,3.47c0,0,0,0,0,0.01c0.22,0.44,0.49,0.85,0.72,1.28c5.85,11.06,16.43,19.79,30.76,25.44l-32.18,117.92
			c-0.21,0.76-0.05,1.58,0.43,2.21c0.48,0.63,1.23,1,2.02,1h7.03c1.03,0,1.96-0.62,2.35-1.58l46.08-112.59
			c11.43,2.1,22.86,3.29,31.84,4.06c0.21,0.02,0.44,0.03,0.65,0.05c0.99,0.08,2,0.16,3.03,0.23c0.58,0.04,1.2,0.08,1.81,0.11
			c0.71,0.04,1.42,0.09,2.15,0.13c0.68,0.04,1.39,0.07,2.09,0.1c0.68,0.03,1.35,0.06,2.04,0.09c0.79,0.03,1.59,0.06,2.41,0.09
			c0.34,0.01,0.67,0.03,1.01,0.04l-7.27,106.56c-0.05,0.7,0.2,1.39,0.68,1.9c0.48,0.52,1.15,0.81,1.86,0.81h7.03
			c1.21,0,2.25-0.85,2.49-2.03l21.86-106.81c2.03,0.03,4.08,0.11,6.08,0.11c8.1,0,15.9-0.34,23.45-0.88
			c4.95-0.19,8.21-0.4,10.35-0.68c1.11-0.11,1.95-0.24,2.53-0.45c4.97-0.59,10.07-1.38,15.21-2.35l45.64,111.51
			c0.39,0.95,1.32,1.58,2.35,1.58h7.03c0.79,0,1.54-0.37,2.02-1c0.48-0.63,0.64-1.45,0.43-2.21l-31.74-116.34
			c13.16-4.16,24.35-9.34,33.66-15.19c14.25-8.75,25.79-19.93,31.92-33.79c0.48-1.03,0.93-2.06,1.34-3.09
			C710.57,666.55,707.04,649.71,694.82,640.76z M660.85,850.19l-44.63-109.03c1.63-0.35,3.25-0.8,4.88-1.19
			c2.33-0.53,4.63-1.08,6.86-1.66c1.38-0.36,2.72-0.74,4.06-1.12l30.83,113.01H660.85z M524.87,850.19l7.1-104.05
			c1.18,0.03,2.35,0.05,3.53,0.07c0.26,0.01,0.51,0.01,0.77,0.01c3.03,0.05,6.21,0.07,9.53,0.08c0.1,0,0.21,0,0.31,0
			c0.76,0.03,1.5,0.02,2.26,0.04l-21.25,103.85H524.87z M427.72,850.19l31.19-114.31c5.04,1.68,10.4,3.06,15.87,4.21l-45.06,110.1
			H427.72z M453.67,544.77c18.97,0,39.87,2.83,53.65,7.95c19.22,11.21,31.89,48.22,43.07,80.9c7.84,22.91,15.3,44.68,24.5,56.85
			h-74.77c-10.05-8.7-23.61-20.3-38.24-25.5c-11.76-4.18-23.69-2.97-31.9,3.24c-3.54,2.67-6.11,6.11-7.88,9.92
			c-12.77-69.64-17.03-116.64-11.07-123.74C416.59,547.78,434.11,544.77,453.67,544.77z M582.15,695.55h3.59h39.8
			c4.69,0,9.14,2.29,11.89,6.13c2.55,3.55,3.24,7.89,1.89,11.9c-1.22,3.61-3.17,6.88-5.8,9.82c-0.65,0.72-1.33,1.42-2.06,2.09
			c-0.68,0.63-1.38,1.24-2.13,1.83c-1.54,1.22-3.22,2.36-5.06,3.42c-3.06,1.76-6.55,3.28-10.42,4.59c-0.8,0.27-1.59,0.54-2.42,0.79
			c-0.8,0.24-1.64,0.46-2.47,0.68c-2.37,0.63-4.86,1.19-7.47,1.68c-2.08,0.39-4.22,0.74-6.45,1.03c-0.05,0.01-0.1,0.02-0.15,0.02
			c-0.29-0.03-0.57-0.08-0.86-0.12c-6.76-0.75-13.29-1.82-19.4-3.23c-0.37-0.08-0.73-0.19-1.1-0.29c-0.66-0.17-1.31-0.33-1.97-0.52
			l-1.74-0.48c-7.72-2.04-14.5-4.49-20.68-7.37c-0.89-0.42-1.79-0.84-2.66-1.28c-0.34-0.17-0.7-0.32-1.04-0.5
			c-0.56-0.29-1.06-0.59-1.6-0.88c-1.04-0.56-2.04-1.13-3.02-1.7c-0.34-0.19-0.67-0.39-1-0.59c-0.93-0.56-1.85-1.12-2.71-1.69
			c-9.9-6.54-18.95-14.61-27.71-22.41c-1.1-0.99-2.21-1.97-3.32-2.95h72.46H582.15z M655.94,722.92c-6.14,2.96-12.9,5.67-20.36,8.03
			c-0.79,0.25-1.63,0.48-2.44,0.72c-0.65,0.2-1.29,0.39-1.95,0.58c0.59-0.43,1.19-0.86,1.75-1.31c0.74-0.6,1.44-1.23,2.12-1.87
			c4.25-3.98,7.29-8.61,9.07-13.87c1.88-5.57,0.94-11.58-2.58-16.48c-3.71-5.17-9.7-8.25-16.02-8.25H590.9h-0.09
			c7.68-7.67,16.3-16.22,26.52-25.67c35.51-28.91,61.76-29.26,74.49-19.94c10.3,7.54,13.15,22.04,7.26,36.93
			C693.19,696.69,679.2,711.7,655.94,722.92z M476.74,735.32c-5.7-1.17-11.29-2.59-16.49-4.34c-0.61-0.2-1.27-0.38-1.87-0.6
			c-0.18-0.06-0.37-0.15-0.54-0.21c-0.77-0.28-1.57-0.6-2.38-0.93c-9.98-4.02-22.01-11.26-28.25-24.06c-0.49-1-0.9-2.05-1.28-3.13
			c-0.05-0.16-0.12-0.32-0.17-0.48c-0.37-1.12-0.66-2.28-0.9-3.45c0,0,0,0,0-0.01c-0.55-2.7-0.76-5.52-0.57-8.31
			c0.45-6.76,3.17-13.32,8.76-17.54c4.43-3.34,9.82-4.61,15.07-4.61c4.31,0,8.54,0.85,12.07,2.11c14.02,4.98,27.44,16.6,37.23,25.09
			c2.81,2.43,5.59,4.91,8.37,7.38c8.88,7.92,18.07,16.1,28.26,22.84c1.45,0.96,2.95,1.88,4.49,2.77c0.88,0.51,1.78,1,2.69,1.49
			c0.86,0.47,1.74,0.92,2.63,1.37c8.45,4.27,17.99,7.69,28.53,10.16c-4.96,0.14-10.46,0.25-16.17,0.31
			c-0.69,0.01-1.37,0.02-2.06,0.02c-2.57,0.02-5.18,0.03-7.8,0.03c-6.41-0.01-12.85-0.09-18.9-0.29
			c-5.54-0.18-10.76-0.45-15.32-0.84c-0.43-0.04-0.93-0.09-1.37-0.12c-1.53-0.13-3.07-0.27-4.71-0.43
			c-7.36-0.72-15.78-1.74-24.22-3.25c-0.85-0.15-1.71-0.29-2.56-0.45C478.42,735.68,477.58,735.49,476.74,735.32z"/>
		<g>
			<path class="st0" d="M1013.84,852.06l-23.33-85.52h13.59c1.4,0,2.54-1.14,2.54-2.54v-59.58c0-1.4-1.14-2.54-2.54-2.54H868.05
				c-1.4,0-2.54,1.14-2.54,2.54V764c0,1.4,1.14,2.54,2.54,2.54h13.59l-23.34,85.52c-0.21,0.76-0.05,1.58,0.43,2.21
				c0.48,0.63,1.23,1,2.02,1h7.03c1.03,0,1.96-0.62,2.35-1.58l35.67-87.15h60.54l35.67,87.15c0.39,0.95,1.32,1.58,2.35,1.58h7.03
				c0.79,0,1.54-0.37,2.02-1C1013.89,853.64,1014.05,852.83,1013.84,852.06z M1006.06,850.19l-34.23-83.65h13.41l22.82,83.65
				H1006.06z M864.07,850.19l22.82-83.65h13.41l-34.23,83.65H864.07z M904.1,761.46h-19.14h-14.37v-54.5h130.97v54.5h-14.37h-19.14
				H904.1z"/>
			<path class="st0" d="M936.07,711.47c-4.34,0-7.87,3.53-7.87,7.87c0,4.34,3.53,7.87,7.87,7.87c4.34,0,7.87-3.53,7.87-7.87
				C943.94,715,940.41,711.47,936.07,711.47z M936.07,722.13c-1.54,0-2.79-1.25-2.79-2.79c0-1.54,1.25-2.79,2.79-2.79
				c1.54,0,2.79,1.25,2.79,2.79C938.86,720.88,937.61,722.13,936.07,722.13z"/>
		</g>
	</g>
	<path class="st0" d="M721.58,269.92c0.02-0.32,0.1-0.63,0.1-0.96c0-6.31-4.51-11.58-10.48-12.76V137.45c0-1.4-1.14-2.54-2.54-2.54
		s-2.54,1.14-2.54,2.54v118.75c-5.97,1.19-10.48,6.45-10.48,12.76c0,0.33,0.07,0.64,0.1,0.96c-18.49,0.76-50.16,3.44-50.16,12.83
		l0.85,40.43c0,0.04,0.02,0.07,0.02,0.11c-0.08,4.09,6.04,7.91,14.45,11.21l0.38,26.98c0,0.03,0.02,0.07,0.02,0.1
		c0.01,0.1,0,0.19,0.01,0.29c0.02,0.12,0.1,0.22,0.13,0.33c0.05,0.17,0.12,0.33,0.2,0.49c1.53,3.49,8.53,4.63,16.9,4.63
		c12.26,0,27.31-2.38,31.86-3.15c12.12-2.05,23.39-4.81,31.75-7.76c6.14-2.17,10.09-4.21,12.16-6.3c8.31-0.41,14.73-1.95,16.22-5.47
		c0.15-0.24,0.24-0.52,0.3-0.81c0.01-0.02,0.02-0.04,0.03-0.07c0,0,0,0,0,0v0c0.06-0.33,0.07-0.67,0.04-1l0.84-60.05
		C771.75,273.34,740.08,270.68,721.58,269.92z M674.99,362.13c-4.19-0.17-6.97-0.63-8.24-1.18v0c1.02-0.94,3.49-2.29,7.4-3.83
		c6.79-2.68,17.96-5.92,33.61-8.57c2.55-0.43,4.96-0.8,7.29-1.12c3.67-0.52,7.08-0.91,10.21-1.21c7.11-0.66,12.82-0.81,17.06-0.63
		c4.19,0.17,6.97,0.63,8.24,1.18c0,0,0,0,0,0c-0.31,0.28-0.77,0.61-1.33,0.96c-1.13,0.7-2.78,1.52-4.95,2.42
		c-0.36,0.15-0.73,0.3-1.11,0.45c-6.79,2.68-17.96,5.92-33.62,8.57C693.9,361.81,682.29,362.42,674.99,362.13z M665.97,333.69
		l-0.04-2.73l-0.14-9.62c0.47-0.01,0.94-0.02,1.42-0.02c0.39-0.01,0.76-0.01,1.16-0.01c0.86,0,1.78,0.01,2.7,0.03
		c0.41,0.01,0.8,0.01,1.22,0.02c0.98,0.02,2.01,0.07,3.06,0.11c0.41,0.02,0.81,0.03,1.24,0.05c1.12,0.05,2.3,0.13,3.5,0.21
		c0.39,0.03,0.76,0.04,1.16,0.07c1.26,0.09,2.58,0.2,3.91,0.32c0.38,0.03,0.74,0.06,1.13,0.09c1.42,0.13,2.91,0.28,4.41,0.45
		c0.33,0.04,0.65,0.06,0.98,0.1c1.66,0.18,3.38,0.4,5.13,0.62c0.21,0.03,0.4,0.05,0.61,0.07c3.96,0.52,8.16,1.15,12.57,1.89
		c4.38,0.74,8.53,1.52,12.42,2.33c0.19,0.04,0.37,0.08,0.56,0.12c1.72,0.36,3.4,0.72,5.02,1.09c0.89,0.2,1.72,0.41,2.58,0.61
		c0.86,0.2,1.75,0.41,2.57,0.61c7.17,1.77,13.19,3.58,18.05,5.29l0,0.03l-0.13,6.3c-8.39-2.57-25.41-0.88-36.1,0.59
		c-3.58,0.49-6.45,0.96-8.04,1.22c-0.07,0.01-0.17,0.03-0.24,0.04c-1.5,0.25-3.95,0.69-6.98,1.29c-9.79,1.95-25.46,5.61-33.42,10.4
		L666,336.36L665.97,333.69z M756.24,337.33c5.62,2.3,8.85,4.3,9.53,5.56c-0.98,0.91-4.31,1.67-9.68,2.04L756.24,337.33z
		 M651.59,323.59c0.06-0.06,0.14-0.12,0.22-0.18c0.1-0.07,0.21-0.15,0.35-0.22c0.16-0.08,0.35-0.17,0.55-0.24
		c0.17-0.07,0.33-0.13,0.53-0.2c0.24-0.08,0.53-0.15,0.81-0.23c0.22-0.06,0.44-0.12,0.69-0.17c0.33-0.07,0.71-0.14,1.09-0.21
		c0.27-0.05,0.53-0.1,0.83-0.14c0.43-0.07,0.91-0.12,1.39-0.18c0.31-0.04,0.61-0.08,0.93-0.11c0.53-0.05,1.12-0.1,1.7-0.14
		c0.01,0,0.02,0,0.04,0l0.1,7.46C655.39,326.77,652.28,324.84,651.59,323.59z M764.55,335.77c-0.52-0.31-1.08-0.61-1.65-0.91
		c-0.24-0.13-0.49-0.25-0.74-0.37c-0.38-0.19-0.75-0.38-1.15-0.56c-0.29-0.14-0.59-0.28-0.89-0.41c-0.38-0.17-0.76-0.34-1.14-0.5
		c-0.32-0.14-0.63-0.27-0.96-0.41c-0.42-0.17-0.84-0.34-1.27-0.51c-0.13-0.05-0.26-0.11-0.39-0.16c-0.18-0.07-0.35-0.14-0.53-0.21
		c-0.65-0.25-1.32-0.5-1.99-0.74c-0.04-0.01-0.09-0.03-0.13-0.05c-0.36-0.13-0.73-0.26-1.1-0.39c-0.42-0.15-0.85-0.3-1.28-0.44
		c-0.01,0-0.01,0-0.02-0.01c-0.39-0.13-0.79-0.26-1.19-0.39c-0.41-0.13-0.82-0.27-1.24-0.4c-0.41-0.13-0.83-0.26-1.25-0.39
		c-0.42-0.13-0.84-0.26-1.27-0.39c-0.41-0.12-0.82-0.25-1.23-0.37c-0.58-0.17-1.17-0.34-1.76-0.51c-0.64-0.18-1.29-0.36-1.93-0.54
		c-0.38-0.1-0.75-0.21-1.12-0.31c-0.48-0.13-0.96-0.26-1.44-0.38c-0.36-0.1-0.72-0.19-1.07-0.28c-0.48-0.13-0.96-0.25-1.44-0.37
		c-0.34-0.08-0.67-0.17-1.01-0.25c-0.5-0.13-1-0.25-1.49-0.37c-0.01,0-0.02-0.01-0.03-0.01c-1.3-0.32-2.57-0.62-3.82-0.91
		c-0.2-0.05-0.4-0.09-0.59-0.14c-0.53-0.12-1.06-0.24-1.58-0.36c-0.23-0.05-0.46-0.1-0.69-0.16c-0.52-0.12-1.03-0.23-1.53-0.34
		c-0.18-0.04-0.35-0.08-0.52-0.11c-2.48-0.54-4.77-1.01-6.74-1.4c-0.01,0-0.03-0.01-0.04-0.01c-4.15-0.82-6.96-1.3-7.47-1.39
		c-0.04-0.01-0.15-0.03-0.22-0.04c-0.39-0.06-1.2-0.2-2.39-0.38c-6.75-1.05-25.06-3.68-40.03-3.68c-0.85,0-1.65,0.03-2.48,0.05
		c-0.85,0.02-1.72,0.02-2.54,0.06c-0.88,0.04-1.7,0.12-2.54,0.19c-3.61,0.29-6.83,0.8-9.25,1.68l0-0.15l-0.77-35.15
		c1.3-2.62,17.73-7.05,46.52-8.02c0.93-0.03,1.88-0.05,2.83-0.08c1.09-0.03,2.17-0.05,3.29-0.07c1.77-0.03,3.55-0.05,5.4-0.05
		s3.63,0.02,5.4,0.05c1.12,0.02,2.21,0.04,3.29,0.07c0.95,0.02,1.9,0.05,2.83,0.08c28.79,0.96,45.22,5.37,46.49,7.77l-0.76,53.94
		c-0.27-0.18-0.56-0.35-0.85-0.52C764.89,335.98,764.73,335.87,764.55,335.77z M700.72,268.95c0-3.49,2.27-6.42,5.4-7.49
		c0.8-0.27,1.65-0.45,2.54-0.45s1.74,0.18,2.54,0.45c3.13,1.07,5.4,4,5.4,7.49c0,0.27-0.05,0.53-0.08,0.79
		c-2.16-0.06-3.97-0.09-5.32-0.11c-1.37-0.02-2.27-0.02-2.54-0.02h0c-0.26,0-1.17,0-2.54,0.02c-1.34,0.02-3.16,0.05-5.32,0.11
		C700.77,269.48,700.72,269.23,700.72,268.95z"/>
	<g>
		<g>
			<polyline class="st0" points="1090.73,883.53 1090.73,325.34 1082.25,325.34 1082.25,883.53 			"/>
		</g>
		<g>
			<polyline class="st0" points="335.07,883.53 335.07,325.34 326.59,325.34 326.59,883.53 			"/>
		</g>
	</g>
	<g>
		<polyline class="st0" points="316.08,873.64 1101.25,873.64 1101.25,865.16 316.08,865.16 		"/>
	</g>
	<g>
		<g>
			<polyline class="st0" points="726.51,142.19 252.71,424.09 248.38,416.8 722.18,134.91 			"/>
		</g>
		<g>
			<polyline class="st0" points="690.81,142.19 1164.61,424.09 1168.95,416.8 695.15,134.91 			"/>
		</g>
	</g>
	<g>
		<path class="st0" d="M354.61,981.63h1.82c0,7,0.79,13.02,2.38,18.06c1.59,5.04,3.76,9.22,6.51,12.53
			c2.75,3.31,5.99,5.74,9.73,7.28c3.73,1.54,7.74,2.31,12.04,2.31c2.61,0,5.11-0.28,7.49-0.84c2.38-0.56,4.46-1.52,6.23-2.87
			c1.77-1.35,3.17-3.1,4.2-5.25c1.03-2.15,1.54-4.76,1.54-7.84c0-3.92-1.28-7.49-3.85-10.71c-2.57-3.22-5.76-6.34-9.59-9.38
			c-3.83-3.03-7.98-6.02-12.46-8.96c-4.48-2.94-8.63-6.02-12.46-9.24c-3.83-3.22-7.02-6.67-9.59-10.36
			c-2.57-3.68-3.85-7.77-3.85-12.25c0-4.11,0.86-7.65,2.59-10.64c1.73-2.98,3.99-5.48,6.79-7.49c2.8-2,5.92-3.5,9.38-4.48
			c3.45-0.98,6.9-1.47,10.36-1.47c3.55,0,6.55,0.37,9.03,1.12c2.47,0.75,4.62,1.56,6.44,2.45c1.82,0.89,3.43,1.7,4.83,2.45
			c1.4,0.75,2.8,1.12,4.2,1.12c1.87,0,3.12-0.4,3.78-1.19c0.65-0.79,0.98-2.26,0.98-4.41h1.82v33.03h-1.82
			c0-4.67-0.7-8.93-2.1-12.81c-1.4-3.87-3.31-7.18-5.74-9.94c-2.43-2.75-5.3-4.87-8.61-6.37c-3.31-1.49-6.93-2.24-10.85-2.24
			c-5.6,0-9.61,1.33-12.04,3.99c-2.43,2.66-3.64,6.04-3.64,10.15c0,4.57,1.24,8.59,3.71,12.04c2.47,3.45,5.57,6.63,9.31,9.52
			c3.73,2.89,7.79,5.69,12.18,8.4c4.39,2.71,8.44,5.6,12.18,8.68c3.73,3.08,6.83,6.49,9.31,10.22c2.47,3.73,3.71,8.07,3.71,13.02
			c0,3.55-0.51,6.91-1.54,10.08c-1.03,3.17-2.73,5.95-5.11,8.33c-2.38,2.38-5.58,4.25-9.59,5.6c-4.01,1.35-8.96,2.03-14.84,2.03
			c-3.83,0-7.05-0.35-9.66-1.05c-2.61-0.7-4.9-1.45-6.86-2.24c-1.96-0.79-3.71-1.54-5.25-2.24c-1.54-0.7-3.15-1.05-4.83-1.05
			c-4.29,0-6.44,1.63-6.44,4.9h-1.82V981.63z"/>
		<path class="st0" d="M465.32,1021.81c3.36,0,5.81-0.44,7.35-1.33c1.54-0.89,2.31-2.96,2.31-6.23v-83.28
			c0-3.27-0.77-5.34-2.31-6.23c-1.54-0.89-3.99-1.33-7.35-1.33v-1.82h34.71v1.82c-3.27,0-5.67,0.42-7.21,1.26
			c-1.54,0.84-2.36,2.8-2.45,5.88v39.61h42.97v-39.19c0-3.27-0.79-5.34-2.38-6.23c-1.59-0.89-4.06-1.33-7.42-1.33v-1.82h34.85v1.82
			c-3.36,0-5.81,0.44-7.35,1.33c-1.54,0.89-2.31,2.96-2.31,6.23v83.56c0,3.17,0.77,5.18,2.31,6.02c1.54,0.84,3.99,1.26,7.35,1.26
			v1.82h-34.85v-1.82c3.36,0,5.83-0.44,7.42-1.33c1.59-0.89,2.38-2.96,2.38-6.23v-42.27h-42.97v43.67c0.19,2.71,1.07,4.41,2.66,5.11
			c1.59,0.7,3.92,1.05,7,1.05v1.82h-34.71V1021.81z"/>
		<path class="st0" d="M601.79,1021.81c3.08,0,5.41-0.37,7-1.12c1.59-0.75,2.52-2.43,2.8-5.04l-0.14-84.68
			c0-3.27-0.77-5.34-2.31-6.23c-1.54-0.89-3.99-1.33-7.35-1.33v-1.82h72.36l7.42,22.12h-1.82c-1.31-4.01-2.71-7.3-4.2-9.87
			c-1.49-2.56-3.24-4.62-5.25-6.16c-2.01-1.54-4.43-2.61-7.28-3.22c-2.85-0.61-6.23-0.91-10.15-0.91c-5.04,0-9.22,0.07-12.53,0.21
			c-3.31,0.14-5.97,0.47-7.98,0.98c-2.01,0.51-3.41,1.26-4.2,2.24c-0.79,0.98-1.19,2.31-1.19,3.99v38.21h16.1
			c3.83,0,6.81-0.47,8.96-1.4c2.15-0.93,3.73-2.29,4.76-4.06c1.03-1.77,1.68-3.99,1.96-6.65c0.28-2.66,0.42-5.76,0.42-9.31H661
			v46.33h-1.82c0-3.54-0.09-6.74-0.28-9.59c-0.19-2.85-0.77-5.27-1.75-7.28c-0.98-2-2.57-3.54-4.76-4.62
			c-2.19-1.07-5.3-1.61-9.31-1.61h-16.1v43.25c0,1.59,0.3,2.87,0.91,3.85c0.61,0.98,1.63,1.75,3.08,2.31
			c1.45,0.56,3.38,0.93,5.81,1.12c2.43,0.19,5.41,0.28,8.96,0.28c5.97,0,11.1-1,15.4-3.01c4.29-2.01,7.98-4.73,11.06-8.19
			c3.08-3.45,5.69-7.51,7.84-12.18c2.15-4.67,4.01-9.66,5.6-14.98h1.82l-9.94,40.17h-75.72V1021.81z"/>
		<path class="st0" d="M730.29,921.59h34.85v1.82c-3.36,0-5.81,0.44-7.35,1.33c-1.54,0.89-2.31,2.96-2.31,6.23v83.42
			c0,1.68,0.3,3.01,0.91,3.99c0.61,0.98,1.63,1.73,3.08,2.24c1.45,0.51,3.38,0.84,5.81,0.98c2.43,0.14,5.41,0.21,8.96,0.21
			c5.97,0,11.1-1,15.4-3.01c4.29-2.01,7.98-4.73,11.06-8.19c3.08-3.45,5.69-7.51,7.84-12.18c2.15-4.67,4.01-9.66,5.6-14.98h1.82
			l-9.94,40.17h-75.72v-1.82c1.59,0,2.94-0.02,4.06-0.07c1.12-0.05,2.08-0.26,2.87-0.63c0.79-0.37,1.42-0.98,1.89-1.82
			c0.47-0.84,0.75-2.01,0.84-3.5v-84.82c0-3.27-0.77-5.34-2.31-6.23c-1.54-0.89-3.99-1.33-7.35-1.33V921.59z"/>
		<path class="st0" d="M858.64,921.59h34.85v1.82c-3.36,0-5.81,0.44-7.35,1.33c-1.54,0.89-2.31,2.96-2.31,6.23v83.42
			c0,1.68,0.3,3.01,0.91,3.99c0.61,0.98,1.63,1.73,3.08,2.24c1.45,0.51,3.38,0.84,5.81,0.98c2.43,0.14,5.41,0.21,8.96,0.21
			c5.97,0,11.1-1,15.4-3.01c4.29-2.01,7.98-4.73,11.06-8.19c3.08-3.45,5.69-7.51,7.84-12.18c2.15-4.67,4.01-9.66,5.6-14.98h1.82
			l-9.94,40.17h-75.72v-1.82c1.59,0,2.94-0.02,4.06-0.07c1.12-0.05,2.08-0.26,2.87-0.63c0.79-0.37,1.42-0.98,1.89-1.82
			c0.47-0.84,0.75-2.01,0.84-3.5v-84.82c0-3.27-0.77-5.34-2.31-6.23c-1.54-0.89-3.99-1.33-7.35-1.33V921.59z"/>
		<path class="st0" d="M1015.82,921.59v1.82c-2.33,0-4.34,0.07-6.02,0.21c-1.68,0.14-2.94,0.47-3.78,0.98
			c-0.84,0.51-1.28,1.28-1.33,2.31c-0.05,1.03,0.35,2.38,1.19,4.06l22.12,45.49h0.56l20.86-45.63c1.31-2.99,1.45-4.97,0.42-5.95
			c-1.03-0.98-3.45-1.47-7.28-1.47v-1.82h20.16v1.82c-1.77,0-3.22,0.09-4.34,0.28c-1.12,0.19-2.05,0.49-2.8,0.91
			c-0.75,0.42-1.38,1.03-1.89,1.82c-0.51,0.79-1.05,1.75-1.61,2.87l-21.56,47.59l-0.14,38.21c0.19,2.89,1.05,4.74,2.59,5.53
			c1.54,0.79,3.89,1.19,7.07,1.19v1.82h-34.71v-1.82c3.36,0,5.83-0.44,7.42-1.33c1.59-0.89,2.38-2.96,2.38-6.23v-30.09
			c-0.37-0.75-1.1-2.24-2.17-4.48c-1.07-2.24-2.38-4.92-3.92-8.05c-1.54-3.13-3.22-6.56-5.04-10.29c-1.82-3.73-3.66-7.49-5.53-11.27
			c-1.87-3.78-3.66-7.44-5.39-10.99c-1.73-3.55-3.24-6.67-4.55-9.38c-0.56-1.12-1.14-2.1-1.75-2.94c-0.61-0.84-1.33-1.49-2.17-1.96
			c-0.84-0.47-1.91-0.82-3.22-1.05c-1.31-0.23-2.94-0.35-4.9-0.35v-1.82H1015.82z"/>
	</g>
	<g>
		<path d="M218.14,1273.53l-9.31-35.65h6.92l4.63,20.75l1.6,10.06l2.08-9.68l5.59-21.13h7.77l5.48,21.13l2.02,9.68l1.65-10.06
			l4.74-20.75h6.81l-9.42,35.65h-7.56l-5.59-21.13l-2.08-9.95l-2.08,9.95l-5.69,21.13H218.14z"/>
		<path d="M275.08,1273.53v-35.65h5.96v16.82c0.96-4.1,3.62-7.61,8.78-7.61c5.06,0,8.14,3.03,8.14,8.41v18.04h-6.01v-16.23
			c0-3.19-1.06-5.38-5.06-5.38c-4.36,0-5.85,2.82-5.85,7.08v14.53H275.08z"/>
		<path d="M316,1260.6c0-8.14,5.06-13.52,12.35-13.52c7.77,0,12.08,5.16,12.08,12.35c0,0.96-0.11,2.08-0.21,2.61H321.7
			c0.32,4.63,3.03,7.13,7.13,7.13c4.52,0,6.55-2.34,7.5-4.52l3.67,3.83c-1.97,2.98-5.48,5.59-11.23,5.59
			C321.06,1274.06,316,1268.69,316,1260.6z M321.75,1258.2h13.3c-0.43-4.1-2.77-6.33-6.7-6.33
			C324.68,1251.87,322.23,1254,321.75,1258.2z"/>
		<path d="M358.95,1273.53v-25.92h5.96v7.34c0.96-4.15,3.57-7.88,8.2-7.88c3.25,0,5.64,2.13,5.64,5.96c0,2.5-0.69,4.36-1.17,5.16
			h-6.12c0.85-0.85,1.65-2.55,1.65-4.04c0-1.44-0.69-2.61-2.45-2.61c-2.98,0-5.75,3.41-5.75,7.72v14.26H358.95z"/>
		<path d="M394.07,1260.6c0-8.14,5.06-13.52,12.35-13.52c7.77,0,12.08,5.16,12.08,12.35c0,0.96-0.11,2.08-0.21,2.61h-18.52
			c0.32,4.63,3.03,7.13,7.13,7.13c4.52,0,6.55-2.34,7.5-4.52l3.67,3.83c-1.97,2.98-5.48,5.59-11.23,5.59
			C399.13,1274.06,394.07,1268.69,394.07,1260.6z M399.82,1258.2h13.3c-0.43-4.1-2.77-6.33-6.7-6.33
			C402.75,1251.87,400.3,1254,399.82,1258.2z"/>
		<path d="M460.65,1265.6l4.26-4.31c1.92,5.22,7.29,7.24,11.65,7.24c3.57,0,6.44-1.28,6.44-4.52c0-3.46-2.87-4.42-7.5-5.43
			l-3.35-0.75c-5.06-1.06-10.43-3.35-10.43-10.11c0-6.71,5.8-10.32,12.51-10.32c6.55,0,11.76,2.71,14.31,7.61l-4.52,4.31
			c-1.97-4.42-5.8-6.33-10.16-6.33c-3.41,0-5.85,1.6-5.85,4.31c0,3.14,2.45,4.26,6.33,5.22l3.99,0.96
			c5.69,1.38,10.8,3.62,10.8,10.43c0,6.44-5.43,10.16-12.67,10.16C469.64,1274.06,463.41,1271.61,460.65,1265.6z"/>
		<path d="M508.27,1266.45v-14.21h-4.04v-4.63h4.04v-3.14l5.96-3.78v6.92h7.93v4.63h-7.93v12.77c0,2.82,1.33,3.51,3.09,3.51
			c2.02,0,3.51-1.65,4.26-3.14l1.86,5.32c-1.12,1.65-3.67,3.41-7.45,3.41C511.09,1274.11,508.27,1271.03,508.27,1266.45z"/>
		<path d="M536.16,1278.48l2.82-4.79c1.38,1.97,2.98,3.46,5.37,3.46c2.02,0,3.3-0.9,4.26-3.78l0.48-1.44h-3.67l-8.57-24.32h6.55
			l4.68,14.69l1.86,6.92l1.86-6.92l4.63-14.69h6.6l-9.58,27.73c-1.86,5.22-4.9,7.08-9.1,7.08
			C540.63,1282.42,537.6,1280.5,536.16,1278.48z"/>
		<path d="M579.74,1273.53v-35.65h5.96v35.65H579.74z"/>
		<path d="M604.01,1260.6c0-8.14,5.06-13.52,12.35-13.52c7.77,0,12.08,5.16,12.08,12.35c0,0.96-0.11,2.08-0.21,2.61H609.7
			c0.32,4.63,3.03,7.13,7.13,7.13c4.52,0,6.55-2.34,7.5-4.52l3.67,3.83c-1.97,2.98-5.48,5.59-11.23,5.59
			C609.07,1274.06,604.01,1268.69,604.01,1260.6z M609.76,1258.2h13.3c-0.43-4.1-2.77-6.33-6.7-6.33
			C612.68,1251.87,610.24,1254,609.76,1258.2z"/>
		<path d="M671.81,1273.53v-35.65h7.4l7.66,15.64l3.51,9.1l3.57-9.1l7.66-15.64h7.34v35.65h-6.01v-16.76l0.74-11.76l-4.1,10.22
			l-6.17,12.29h-6.07l-6.17-12.29l-4.2-10.22l0.85,11.76v16.76H671.81z"/>
		<path d="M727.47,1260.6c0-8.14,5.06-13.52,12.35-13.52c7.77,0,12.08,5.16,12.08,12.35c0,0.96-0.11,2.08-0.21,2.61h-18.52
			c0.32,4.63,3.03,7.13,7.13,7.13c4.52,0,6.55-2.34,7.5-4.52l3.67,3.83c-1.97,2.98-5.48,5.59-11.23,5.59
			C732.53,1274.06,727.47,1268.69,727.47,1260.6z M733.22,1258.2h13.3c-0.43-4.1-2.77-6.33-6.71-6.33
			C736.15,1251.87,733.7,1254,733.22,1258.2z"/>
		<path d="M769.67,1260.6c0-8.14,5.06-13.52,12.35-13.52c7.77,0,12.08,5.16,12.08,12.35c0,0.96-0.11,2.08-0.21,2.61h-18.52
			c0.32,4.63,3.03,7.13,7.13,7.13c4.52,0,6.55-2.34,7.5-4.52l3.67,3.83c-1.97,2.98-5.48,5.59-11.23,5.59
			C774.73,1274.06,769.67,1268.69,769.67,1260.6z M775.42,1258.2h13.3c-0.43-4.1-2.77-6.33-6.7-6.33
			C778.35,1251.87,775.9,1254,775.42,1258.2z"/>
		<path d="M813.79,1266.45v-14.21h-4.04v-4.63h4.04v-3.14l5.96-3.78v6.92h7.93v4.63h-7.93v12.77c0,2.82,1.33,3.51,3.09,3.51
			c2.02,0,3.51-1.65,4.26-3.14l1.86,5.32c-1.12,1.65-3.67,3.41-7.45,3.41C816.61,1274.11,813.79,1271.03,813.79,1266.45z"/>
		<path d="M843.38,1267.73l3.51-3.73c1.44,2.61,4.63,5.27,9.26,5.27c2.55,0,4.2-0.9,4.2-2.77c0-1.92-1.97-2.55-4.84-3.25l-3.46-0.85
			c-4.1-0.96-7.88-2.77-7.88-7.5c0-4.84,3.89-7.77,9.84-7.77c5.53,0,9.42,2.66,11.02,5.59l-3.51,3.72
			c-1.81-2.87-4.58-4.58-7.93-4.58c-2.29,0-3.83,0.96-3.83,2.71c0,1.86,1.38,2.55,4.9,3.46l3.14,0.8c5.8,1.49,7.93,3.83,7.93,7.56
			c0,5.11-4.31,7.66-9.79,7.66C850.4,1274.06,845.35,1271.83,843.38,1267.73z"/>
		<path d="M907.34,1255.65c0-10.27,6.17-18.31,17.13-18.31c7.88,0,13.3,4.04,15.8,11.02l-5.22,3.83c-1.12-5.37-4.42-9.15-10.54-9.15
			c-7.34,0-10.8,5.21-10.8,12.61c0,7.34,3.46,12.61,10.8,12.61c6.12,0,9.42-3.83,10.54-9.15l5.22,3.83
			c-2.5,6.92-7.93,11.02-15.8,11.02C913.52,1273.95,907.34,1265.92,907.34,1255.65z"/>
		<path d="M956.68,1260.6c0-8.09,5.11-13.52,12.56-13.52c7.56,0,12.67,5.43,12.67,13.52c0,8.04-5.11,13.46-12.67,13.46
			C961.78,1274.06,956.68,1268.63,956.68,1260.6z M975.83,1260.6c0-6.01-2.66-8.57-6.55-8.57c-3.83,0-6.49,2.55-6.49,8.57
			c0,5.96,2.66,8.51,6.49,8.51C973.17,1269.11,975.83,1266.56,975.83,1260.6z"/>
		<path d="M1000.31,1273.53v-25.92h5.96v7.08c0.96-4.1,3.51-7.61,8.41-7.61c4.74,0,7.29,2.77,7.56,7.66c0.9-4.1,3.46-7.66,8.41-7.66
			c4.95,0,7.56,3.03,7.56,8.41v18.04h-5.96v-16.23c0-3.57-1.49-5.38-5-5.38c-3.51,0-5,2.82-5,7.08v14.53h-5.96v-16.23
			c0-3.57-1.49-5.38-5-5.38c-3.51,0-5,2.82-5,7.08v14.53H1000.31z"/>
		<path d="M1058.91,1273.53v-21.29h-3.99v-4.63h3.99v-1.6c0-5.37,3.3-8.67,8.78-8.67c3.78,0,6.28,1.86,7.34,3.25l-2.61,4.26
			c-0.96-1.54-2.5-2.71-4.47-2.71c-2.18,0-3.09,1.17-3.09,3.3v2.18h7.56v4.63h-7.56v21.29H1058.91z"/>
		<path d="M1086.95,1260.6c0-8.09,5.11-13.52,12.56-13.52c7.56,0,12.67,5.43,12.67,13.52c0,8.04-5.11,13.46-12.67,13.46
			C1092.06,1274.06,1086.95,1268.63,1086.95,1260.6z M1106.11,1260.6c0-6.01-2.66-8.57-6.55-8.57c-3.83,0-6.49,2.55-6.49,8.57
			c0,5.96,2.66,8.51,6.49,8.51C1103.45,1269.11,1106.11,1266.56,1106.11,1260.6z"/>
		<path d="M1130.59,1273.53v-25.92h5.96v7.34c0.96-4.15,3.57-7.88,8.2-7.88c3.25,0,5.64,2.13,5.64,5.96c0,2.5-0.69,4.36-1.17,5.16
			h-6.12c0.85-0.85,1.65-2.55,1.65-4.04c0-1.44-0.69-2.61-2.45-2.61c-2.98,0-5.75,3.41-5.75,7.72v14.26H1130.59z"/>
		<path d="M1169.27,1266.45v-14.21h-4.04v-4.63h4.04v-3.14l5.96-3.78v6.92h7.93v4.63h-7.93v12.77c0,2.82,1.33,3.51,3.09,3.51
			c2.02,0,3.51-1.65,4.26-3.14l1.86,5.32c-1.12,1.65-3.67,3.41-7.45,3.41C1172.1,1274.11,1169.27,1271.03,1169.27,1266.45z"/>
		<path d="M1201.68,1273.53v-7.56h6.81v7.56H1201.68z"/>
	</g>
</g>
</svg>
